# xmcd CD database file
#
# Track frame offsets:
#	150
#	10918
#	33810
#	48353
#	76406
#	95821
#	114956
#	131021
#	147908
#	162153
#	178018
#	190892
#	208997
#	218137
#	230535
#	239120
#	254705
#	266567
#	280870
#	291405
#	307567
#	327841
#
# Disc length: 4585 seconds
#
# Revision: 3
# Processed by: cddbd v1.5.2PL0 Copyright (c) Steve Scherf et al.
# Submitted via: CDex 1.79
#
DISCID=4811e716
DTITLE=Chris Bailey - DM Blues CD01
DYEAR=2004
DGENRE=Blues
TTITLE0=In The Midnight Hour
TTITLE1=Ghosts Ship
TTITLE2=Cherokee Dance
TTITLE3=I'm Drinking
TTITLE4=Bring It On Home To Me
TTITLE5=Careless Love
TTITLE6=I Heard It Through The Grapevine
TTITLE7=Amsterdam
TTITLE8=All Night Long
TTITLE9=Walk On
TTITLE10=Another Saturday Night
TTITLE11=Home Again
TTITLE12=It's Only Time
TTITLE13=Insurance On Me
TTITLE14=Junko Partner
TTITLE15=Look At Me
TTITLE16=Always The Same
TTITLE17=Photograph
TTITLE18=Country Boy
TTITLE19=Casablanca
TTITLE20=The Prisoner
TTITLE21=Swing For The Crime
EXTD=YEAR: 2004
EXTT0=
EXTT1=
EXTT2=
EXTT3=
EXTT4=
EXTT5=
EXTT6=
EXTT7=
EXTT8=
EXTT9=
EXTT10=
EXTT11=
EXTT12=
EXTT13=
EXTT14=
EXTT15=
EXTT16=
EXTT17=
EXTT18=
EXTT19=
EXTT20=
EXTT21=
PLAYORDER=
